<svg width="14" height="13" fill="none" xmlns="http://www.w3.org/2000/svg"><path d="M13.216 5.967a6.171 6.171 0 0 0-12.25-.623 6.18 6.18 0 0 0 .746 4.072l-.55 2.042a.615.615 0 0 0 .76.752l2.01-.555a6.14 6.14 0 0 0 3.122.845c3.479 0 6.366-3.066 6.162-6.533zM10.07 8.626a1.406 1.406 0 0 1-.716.679 1.51 1.51 0 0 1-.604.117c-.315 0-.654-.074-1.005-.229a5.65 5.65 0 0 1-1.061-.61c-.358-.26-.691-.55-1.012-.864-.32-.32-.605-.66-.864-1.012a5.427 5.427 0 0 1-.604-1.055 2.613 2.613 0 0 1-.222-1.012c0-.21.037-.413.11-.598.075-.191.192-.364.358-.518.198-.198.414-.29.642-.29.086 0 .173.018.253.055.08.037.154.093.21.173l.715 1.012c.056.08.099.148.124.216a.45.45 0 0 1 .043.191.442.442 0 0 1-.068.222 1.086 1.086 0 0 1-.173.222l-.234.247a.158.158 0 0 0-.05.123c0 .025.007.05.013.074a.427.427 0 0 1 .024.062c.056.105.155.235.29.395.142.16.29.327.45.487.167.167.328.315.494.457.16.136.296.228.401.284.019.006.037.018.056.024a.17.17 0 0 0 .08.013.168.168 0 0 0 .13-.056l.234-.234a.991.991 0 0 1 .222-.173.425.425 0 0 1 .413-.025c.068.031.142.068.216.124l1.024.728a.52.52 0 0 1 .173.197c.03.08.05.154.05.24-.038.106-.063.223-.112.334z" fill="#fff"/></svg>