<svg width="16" height="16" viewBox="0 0 16 16" fill="none" xmlns="http://www.w3.org/2000/svg">
<path fill-rule="evenodd" clip-rule="evenodd" d="M4.4796 0.82859C2.34774 1.019 0.5664 2.57375 0.120126 4.6335C-0.195746 6.09137 0.115279 7.52592 1.00645 8.72186C1.21428 9.00077 7.53547 15.3551 7.71913 15.4697C7.86945 15.5636 8.13194 15.5636 8.28226 15.4697C8.3424 15.4322 9.86313 13.9267 11.6617 12.1242C14.6393 9.14011 14.9502 8.81896 15.1375 8.53423C15.6415 7.76814 15.9011 7.03455 15.9812 6.14979C16.087 4.98118 15.7423 3.73292 15.0549 2.79593C13.8009 1.08648 11.5631 0.385693 9.51736 1.06178C9.1482 1.18377 8.68248 1.4154 8.33399 1.65031C8.16472 1.76442 8.02077 1.85779 8.01408 1.85779C8.00742 1.85779 7.87123 1.76976 7.71147 1.66219C6.98722 1.17458 6.22158 0.904579 5.34263 0.826901C4.94511 0.791752 4.8907 0.791846 4.4796 0.82859ZM5.35827 1.98526C6.16601 2.08129 6.87108 2.39954 7.50036 2.95217C7.76 3.18017 7.82204 3.21141 8.01555 3.21141C8.21115 3.21141 8.30362 3.164 8.56658 2.92896C10.1662 1.49914 12.7126 1.68461 14.0048 3.32508C14.6082 4.09116 14.8843 4.94221 14.8397 5.89837C14.803 6.68578 14.5724 7.34739 14.1119 7.98698C14.0012 8.14071 12.9192 9.24522 10.9719 11.1922L8.0007 14.163L5.18321 11.3486C3.63362 9.80069 2.26156 8.4164 2.13422 8.2724C1.49844 7.5535 1.20171 6.81652 1.16309 5.86053C1.1437 5.38048 1.19186 5.00369 1.32754 4.57352C1.86529 2.86892 3.57214 1.77289 5.35827 1.98526Z" fill="#0F1822"/>
</svg>
